<?xml  version="1.0" encoding="UTF-8"?>
<!DOCTYPE svg PUBLIC "-//W3C//DTD SVG 1.0//EN" "http://www.w3.org/TR/2001/REC-SVG-20010904/DTD/svg10.dtd" >
<svg xmlns="http://www.w3.org/2000/svg" >
<metadata>
<version>1.0</version>
<id><![CDATA[Calvert MT W01 Light]]></id>
<vendor>Monotype Imaging Inc.</vendor>
<credits>
<name>Fonts.com WebFonts</name>
<URL>http://webfonts.fonts.com</URL>
<role>Home of the Web fonts</role>
</credits>
<license>
<URL>http://webfonts.fonts.com/Legal</URL>
</license>
<copyright><![CDATA[Font software Copyright 1992, 2002 Adobe Systems Incorporated. Typeface designs Copyright 1992, 2002 The Monotype Corporation. All rights reserved.]]></copyright>
<trademark><![CDATA["Calvert is a registered trademark of The Monotype Corporation in the United States and/or other countries; MT is a trademark of Monotype Imaging; Inc. Registered in U.S. Patent & Trademark Office and may be registered in certain other jurisdictions."]]></trademark>
<licensee>
<name></name>
</licensee>
</metadata>
<defs >
<font horiz-adv-x="554" id="b717cfa5-b34e-4069-af35-12f7619d3981">
<font-face font-family="" panose-1="2 3 5 3 4 4 5 2 2 4" ascent="915" descent="-250" units-per-em="1000" alphabetic="0">
</font-face>
<missing-glyph horiz-adv-x="0" />

<glyph unicode="&#xA;" />
<glyph unicode="&#xD;" horiz-adv-x="0" />
<glyph unicode=" " horiz-adv-x="278" />
<glyph unicode="!" horiz-adv-x="250" d="M84 738H169L155 189H95L84 738ZM79 91H172V0H79V91Z"  />
<glyph unicode="&quot;" horiz-adv-x="313" d="M42 743H123L107 550H58L42 743ZM189 743H270L254 550H205L189 743Z"  />
<glyph unicode="#" horiz-adv-x="668" d="M44 475H203L245 672H304L262 475H468L509 672H569L527 475H624V415H515L478 234H624V174H466L425 -22H365L407 174H200L159 -22H99L140 174H44V234H153L191 415H44V475ZM250 415L212 235H419L456 415H250Z"  />
<glyph unicode="$" horiz-adv-x="573" d="M265 625Q217 622 188 595T159 516Q159 496 164 480T181 451T214 427T265 403V625ZM329 67Q435 93 435 182Q435 225 412 250T329 296V67ZM426 504Q416 562 394 588T329 622V379Q368 364 401 349T460 312T499 258T514 177Q515 138 499 106T457 49T398 10T329 -11V-84H266V-13Q207 -10 168 17T106 78T72 147T61 199H142Q146 173 153 150T173 108T209 77T266 63V319Q236 329 203 342T143 377T98 431T80 513Q80 559 99 594T146 653T207 689T266 702V742H328V703Q362 698 393 684T448 646T486 586T503 504H426Z"  />
<glyph unicode="%" horiz-adv-x="833" d="M643 304Q554 304 554 159Q554 17 648 17Q691 17 714 54T738 161Q738 230 714 267T643 304ZM647 353Q716 353 756 300T796 154Q796 112 786 78T756 19T710 -18T649 -32Q578 -32 538 19T497 159Q497 250 536 301T647 353ZM188 698Q143 698 119 661T95 552Q95 485 118 448T185 410Q232 410 256 446T281 551Q281 622 257 660T188 698ZM186 747Q259 747 298 696T338 551Q338 463 299 412T191 361Q121 361 80 411T38 546Q38 644 76 695T186 747ZM588 745H643L247 -31H191L588 745Z"  />
<glyph unicode="&amp;" horiz-adv-x="667" d="M256 447Q287 465 307 479T340 507T357 534T362 565Q362 603 338 628T277 653Q259 653 243 646T215 627T196 600T189 567Q189 544 204 518T256 447ZM236 347Q183 315 162 284T140 210Q140 181 151 155T183 108T230 77T287 65Q323 65 350 78T413 124L236 347ZM463 61Q451 50 435 38T398 15T349 -3T287 -10Q237 -10 195 7T123 54T75 124T57 213Q57 255 71 286T105 341T148 380T189 407Q165 435 150 456T125 494T113 528T109 562Q109 596 121 625T155 676T207 710T272 722Q309 722 340 710T394 677T428 627T441 561Q441 524 428 497T394 449T349 415T302 388L460 189Q477 219 484 251T490 336H640V264H563Q561 241 558 225T550 192T535 160T513 123Q527 105 536 94T553 76T567 68T583 65Q593 65 603 67T640 74L652 2L632 -1Q605 -6 589 -8T563 -10Q549 -10 540 -8T521 -1T503 14T480 40L463 61Z"  />
<glyph unicode="&apos;" horiz-adv-x="250" d="M85 744H166L150 549H101L85 744Z"  />
<glyph unicode="(" horiz-adv-x="344" d="M227 748H297Q277 718 264 698T241 662T224 633T209 603Q173 528 154 447T135 283Q135 199 154 119T210 -37Q228 -75 251 -110T300 -185H230L206 -148Q178 -104 150 -56T99 45T62 158T47 285Q47 343 58 396T89 502T138 607T204 714L227 748Z"  />
<glyph unicode=")" horiz-adv-x="344" d="M47 -185Q69 -152 97 -106T151 -2T193 126T210 281Q210 364 191 444T135 599Q115 638 92 675T44 748H114Q141 709 158 683T187 637T208 600T227 563Q259 497 278 427T298 284Q298 216 285 158T251 48T202 -51T145 -145L120 -185H47Z"  />
<glyph unicode="*" horiz-adv-x="469" d="M159 747L232 600L308 746L359 716L270 577L439 584V527L274 531L360 391L308 362L233 512L153 363L106 392L192 531L30 526V584L194 578L109 715L159 747Z"  />
<glyph unicode="+" horiz-adv-x="667" d="M67 355H300V589H364V355H599V291H364V59H300V291H67V355Z"  />
<glyph unicode="&#x2c;" horiz-adv-x="250" d="M79 89H169V-5Q169 -54 149 -76T78 -105V-66Q91 -65 99 -62T111 -51T118 -31T121 0H79V89Z"  />
<glyph unicode="-" horiz-adv-x="344" d="M62 302H282V236H62V302Z"  />
<glyph unicode="." horiz-adv-x="250" d="M79 91H172V0H79V91Z"  />
<glyph unicode="/" horiz-adv-x="417" d="M321 747H384L97 -181H33L321 747Z"  />
<glyph unicode="0" horiz-adv-x="573" d="M287 -13Q234 -13 196 6T131 51Q81 100 59 171T36 350Q36 437 53 506T102 624T181 698T286 724Q329 724 369 708T441 662Q490 614 513 541T537 359Q537 235 506 152T412 26Q392 12 359 0T287 -13ZM125 344Q125 240 147 177T217 84Q247 64 283 64Q341 64 383 107Q418 144 433 202T448 356Q448 452 433 510T381 607Q363 626 339 636T289 647Q263 647 238 637T196 609Q158 570 142 508T125 344Z"  />
<glyph unicode="1" horiz-adv-x="573" d="M254 712H341V69H438V0H151V69H254V619L137 519V611L254 712Z"  />
<glyph unicode="2" horiz-adv-x="573" d="M149 71H434V179H511V0H61V79L341 377Q364 401 379 420T404 457T417 491T421 527Q421 553 411 575T383 614T340 640T285 649Q233 649 196 620T147 540Q145 531 144 521T142 492H51Q54 518 58 538T67 574T80 606T99 636Q165 725 294 725Q341 725 381 711T450 670T495 607T511 528Q511 496 503 469T473 410T411 336T310 234Q305 229 299 223T285 209T265 190T237 161L149 71Z"  />
<glyph unicode="3" horiz-adv-x="573" d="M66 708H507V628L317 437Q344 436 366 433T406 424T439 408T469 384Q531 324 531 228Q531 177 512 133T460 55T383 4T287 -15Q246 -15 208 -2T139 34T84 89T48 160Q44 171 42 184T36 221H126Q134 163 156 131T204 84T253 65T286 61Q319 61 347 74T398 110T432 163T445 229Q445 261 434 288T404 336T359 367T303 378Q286 378 272 374T231 356L183 407L410 637H144V536H66V708Z"  />
<glyph unicode="4" horiz-adv-x="573" d="M330 711H436L111 286H329V458L415 571V286H547V215H415V70H501V0H245V70H329V215H21V297L330 711Z"  />
<glyph unicode="5" horiz-adv-x="573" d="M87 708H501V554H422V638H168L153 426Q174 444 191 456T226 476T263 486T305 489Q352 489 392 471T461 420T507 343T524 246Q524 190 506 142T455 59T379 5T282 -15Q207 -15 150 23T67 127Q62 138 59 149T50 183H140Q148 154 154 140T171 111Q213 61 285 61Q354 61 395 112T436 251Q436 288 425 319T393 372T344 407T281 420Q243 420 209 401T157 351Q154 346 152 340T144 320H59L87 708Z"  />
<glyph unicode="6" horiz-adv-x="573" d="M294 61Q326 61 352 74T398 111T429 167T440 239Q440 277 430 308T401 362T356 397T297 410Q265 410 238 397T192 360T161 304T150 233Q150 197 161 166T191 111T237 74T294 61ZM433 545Q406 648 311 648Q248 648 202 600T139 468Q134 448 133 426T130 363Q142 386 150 397T171 421Q232 477 310 477Q357 477 397 459T466 408T512 330T529 233Q529 180 511 135T462 56T389 3T297 -16Q238 -16 191 9T112 81T62 195T44 347Q44 433 63 502T116 621T200 696T310 723Q380 723 434 688T510 592Q513 583 516 573T522 545H433Z"  />
<glyph unicode="7" horiz-adv-x="573" d="M47 510V707H531V641L292 70H378V0H105V70H191L442 634H126V510H47Z"  />
<glyph unicode="8" horiz-adv-x="573" d="M288 67Q321 67 348 77T396 105T427 148T438 203Q438 232 427 257T396 300T349 328T289 338Q220 338 178 300T136 198Q136 170 147 146T179 105T228 77T288 67ZM288 408Q349 408 385 441T421 532Q421 557 411 579T384 616T342 641T288 650Q229 650 192 617T154 529Q154 475 191 442T288 408ZM404 376Q418 370 439 359T480 329T514 280T528 206Q528 158 510 119T460 50T384 5T287 -11Q234 -11 190 5T113 49T63 117T45 204Q45 248 68 290T129 356Q137 361 145 365T170 376Q119 399 92 435T65 528Q65 570 82 606T130 670T202 712T291 727Q336 727 376 712T445 670T491 608T508 531Q508 470 482 434T404 376Z"  />
<glyph unicode="9" horiz-adv-x="573" d="M280 649Q248 649 222 636T175 600T144 544T133 475Q133 436 143 404T172 349T217 314T276 301Q307 301 333 314T380 350T411 404T423 470Q423 509 413 542T383 598T338 635T280 649ZM138 167Q165 63 260 63Q364 63 415 185Q422 203 427 219T435 253T439 293T442 345Q427 319 417 307T393 282Q335 233 263 233Q215 233 175 251T106 303T60 381T43 480Q43 531 61 576T111 654T185 707T277 726Q370 726 436 660Q483 612 505 539T528 360Q528 276 509 207T456 89T373 14T265 -13Q199 -13 158 9T94 61T61 121T47 167H138Z"  />
<glyph unicode=":" horiz-adv-x="250" d="M80 91H171V0H80V91ZM81 535H171V444H81V535Z"  />
<glyph unicode=";" horiz-adv-x="250" d="M80 537H171V446H80V537ZM81 92H172V1Q172 -53 151 -76T80 -103V-64Q106 -62 113 -50T122 0H81V92Z"  />
<glyph unicode="&lt;" horiz-adv-x="667" d="M598 72L69 295V353L598 576V506L155 324L598 141V72Z"  />
<glyph unicode="=" horiz-adv-x="667" d="M68 472H599V408H68V472ZM68 243H599V179H68V243Z"  />
<glyph unicode="&gt;" horiz-adv-x="667" d="M68 576L598 352V295L68 72V141L512 323L68 506V576Z"  />
<glyph unicode="?" horiz-adv-x="542" d="M59 520Q62 547 66 568T76 606T90 637T109 666Q167 744 276 744Q321 744 359 729T426 686T471 622T487 541Q487 484 459 438T379 367Q367 361 352 356T311 343V189H233V383Q259 385 279 389T315 399T343 413T367 434Q408 476 408 541Q408 601 372 639T279 677Q235 677 209 658T168 614T149 562T141 520H59ZM226 92H317V0H226V92Z"  />
<glyph unicode="@" horiz-adv-x="800" d="M558 495H619L536 103L532 81Q531 74 531 70T530 64Q530 44 554 44Q581 44 614 64T676 121T725 208T745 318Q745 400 716 467T634 577Q553 641 414 641Q332 641 264 612T145 530T67 407T39 250Q39 165 66 95T144 -25T265 -102T420 -130Q506 -130 577 -106T700 -35Q711 -25 721 -13T752 23H802Q786 -1 774 -17T749 -47T723 -70T691 -93Q631 -132 564 -150T413 -169Q321 -169 245 -138T114 -51T29 82T-2 254Q-2 300 8 349T39 446T93 536T175 611T285 662T428 681Q509 681 575 655T688 582T760 467T786 318Q786 257 765 200T708 99T626 27T532 0Q475 0 475 54Q475 67 479 90Q434 39 392 20T311 0Q274 0 244 15T191 59T156 125T143 210Q143 269 163 322T218 417T296 482T390 507Q427 507 459 494T514 454Q521 447 526 439T541 413L558 495ZM518 325Q516 389 483 426T395 464Q343 464 307 435T249 365T216 279T205 205Q205 170 214 141T239 91T278 58T328 46Q362 46 394 66T453 124T496 211T518 320V325Z"  />
<glyph unicode="A" horiz-adv-x="719" d="M355 631L241 269H473L355 631ZM304 705H406L624 70H691V0H560L496 200H218L156 0H28V70H92L304 705Z"  />
<glyph unicode="B" horiz-adv-x="646" d="M187 635V397H355Q412 397 447 430T483 516Q483 541 473 563T446 601T404 626T352 635H187ZM187 330V70H335Q386 70 418 78T470 106Q487 122 496 146T506 197Q506 266 465 298T333 330H187ZM20 705H330Q404 705 449 692T525 648Q549 624 562 593T576 527Q576 483 563 456T530 411T487 386T446 371Q484 360 503 352T540 329Q602 278 602 195Q602 154 586 119T541 57T475 16T394 0H19V70H100V635H20V705Z"  />
<glyph unicode="C" horiz-adv-x="677" d="M639 229Q622 150 576 94Q488 -14 356 -14Q286 -14 229 11T132 84T69 198T47 347Q47 428 68 495T126 612T216 688T332 715Q375 715 410 703T472 673T518 632T550 591V705H630V474H550Q537 509 526 529T501 566Q437 639 344 639Q297 639 260 619T195 562T154 473T139 356Q139 288 154 234T196 142T263 83T351 62Q405 62 451 90T524 166Q530 177 535 190T549 229H639Z"  />
<glyph unicode="D" horiz-adv-x="698" d="M194 70H290Q381 70 434 95T516 161T552 251T561 347Q561 496 500 565T307 635H194V70ZM106 635H23V705H320Q402 705 464 680T569 609T634 495T656 342Q656 266 633 203T567 95T466 25T337 0H23V70H106V635Z"  />
<glyph unicode="E" horiz-adv-x="604" d="M21 705H537V501H457V635H192V400H454V330H192V70H469V215H549V0H20V70H105V635H21V705Z"  />
<glyph unicode="F" horiz-adv-x="573" d="M22 705H534V499H455V635H192V400H451V330H192V70H304V0H21V70H104V635H22V705Z"  />
<glyph unicode="G" horiz-adv-x="708" d="M388 350H632V0H552V109Q535 82 525 69T500 43Q430 -18 338 -18Q276 -18 223 10T131 87T69 204T46 348Q46 426 68 493T130 611T222 689T336 718Q361 718 388 714T442 696T495 659T546 596V705H620V481H543Q535 510 526 530T503 567Q473 604 434 624T353 644Q320 644 283 629T215 580T162 490T141 352Q141 289 157 235T201 142T269 80T354 57Q387 57 418 70T476 105T520 158T547 224Q549 235 550 247T552 281H388V350Z"  />
<glyph unicode="H" horiz-adv-x="698" d="M23 705H278V635H194V400H503V635H420V705H676V635H591V70H677V0H420V70H503V330H194V70H279V0H22V70H106V635H23V705Z"  />
<glyph unicode="I" horiz-adv-x="302" d="M23 705H279V635H195V70H279V0H23V70H107V635H23V705Z"  />
<glyph unicode="J" horiz-adv-x="375" d="M93 705H348V635H265V157Q265 112 262 80T244 27T198 -3T112 -13Q95 -13 82 -13T42 -10L26 -9V64L61 62Q92 60 110 61T140 65T155 71T163 77Q168 81 170 86T174 102T176 131T177 181V635H93V705Z"  />
<glyph unicode="K" horiz-adv-x="667" d="M38 705H293V635H210V373L506 705H619V635H542L358 435L582 70H653V0H529L301 373L210 275V70H293V0H39V70H123V635H38V705Z"  />
<glyph unicode="L" horiz-adv-x="573" d="M22 705H282V635H195V70H453V231H533V0H21V70H107V635H22V705Z"  />
<glyph unicode="M" horiz-adv-x="844" d="M23 705H241L421 133L606 705H823V635H738V70H823V0H656V637L449 0H389L189 636V0H22V70H107V635H23V705Z"  />
<glyph unicode="N" horiz-adv-x="781" d="M21 705H239L595 70V635H507V705H759V635H677V0H542L186 634V70H272V0H21V70H103V635H21V705Z"  />
<glyph unicode="O" horiz-adv-x="708" d="M141 355Q141 216 199 139T360 61Q406 61 444 81T511 139T554 228T569 342Q569 410 557 458T526 540T483 592T436 622T393 636T362 639H350Q345 639 328 637T288 627T239 601T191 552T155 472T141 355ZM351 712Q423 712 480 685T578 609T640 493T662 345Q662 268 639 203T576 90T479 15T357 -12Q286 -12 229 14T132 90T69 209T47 365Q47 437 69 500T131 610T227 685T351 712Z"  />
<glyph unicode="P" horiz-adv-x="594" d="M194 635V354H297Q374 354 417 392T461 499Q461 565 416 600T288 635H194ZM25 705H316Q371 705 415 691T490 649T537 584T554 497Q554 397 487 341T299 284H194V70H304V0H23V70H106V635H25V705Z"  />
<glyph unicode="Q" horiz-adv-x="708" d="M355 62Q403 62 442 82T510 140T553 230T568 348Q568 414 553 468T511 560T444 618T357 639Q306 639 266 619T198 562T155 472T140 351Q140 284 155 231T197 140T265 82T355 62ZM656 -113Q609 -119 586 -119Q553 -119 522 -112T461 -92T402 -63T343 -29L311 -9Q253 -2 204 28T120 106T65 219T46 360Q46 436 68 501T131 612T228 685T350 712Q420 712 477 686T576 611T639 494T662 344Q662 295 651 248T620 160T572 86T509 30Q498 23 484 17T442 2Q471 -14 490 -23T524 -38T551 -45T579 -47Q596 -47 612 -45T651 -41L656 -113Z"  />
<glyph unicode="R" horiz-adv-x="677" d="M195 635V388H340Q404 388 443 421T483 509Q483 552 462 583T403 626Q387 631 349 633T244 635H195ZM24 705H346Q402 705 440 693T503 661T542 618T562 575T570 539T571 520Q571 475 552 440T495 381Q486 375 475 370T442 356Q474 346 495 335T530 303T551 247T562 153L566 70H652V0H482L480 82Q478 139 475 183T459 257T421 303T350 319H195V70H278V0H20V70H107V635H24V705Z"  />
<glyph unicode="S" horiz-adv-x="604" d="M122 214Q128 197 133 185T143 162T155 144T170 127Q232 59 317 59Q351 59 380 69T430 98T463 141T475 196Q475 231 457 260T406 303Q392 309 366 314T307 322Q278 325 260 326T229 330T206 335T183 342Q159 350 141 362T95 401Q75 421 64 452T52 520Q52 562 68 598T112 660T178 701T263 716Q328 716 374 687T461 606V705H533V512H462Q447 543 437 558T412 588Q355 642 277 642Q245 642 219 634T174 609T145 572T134 524Q134 496 150 471T191 434Q200 430 209 427T231 422T258 417T296 413Q341 409 375 403T435 386T481 361T517 326Q538 300 549 269T560 202Q560 155 543 116T496 47T426 2T338 -15Q288 -15 241 5T159 62Q151 70 143 80T121 109V0H46V214H122Z"  />
<glyph unicode="T" horiz-adv-x="583" d="M41 705H543V449H476V635H336V70H430V0H157V70H248V635H108V449H41V705Z"  />
<glyph unicode="U" horiz-adv-x="740" d="M25 705H280V635H194V247Q194 205 206 172T240 114T295 77T366 64Q455 64 501 111T547 252V635H461V705H716V635H633V260Q633 125 568 56T372 -13Q244 -13 176 54T107 246V635H25V705Z"  />
<glyph unicode="V" horiz-adv-x="719" d="M28 705H248V635H177L357 83L542 635H470V705H691V635H625L411 0H305L91 635H28V705Z"  />
<glyph unicode="W" horiz-adv-x="1000" d="M447 705H555L695 86L828 635H754V705H975V635H912L744 0H639L502 607L363 0H259L91 635H26V705H247V635H174L309 86L447 705Z"  />
<glyph unicode="X" horiz-adv-x="635" d="M48 705H167L318 451L472 705H591V635H525L365 369L542 70H609V0H487L318 293L146 0H26V70H89L271 370L115 635H48V705Z"  />
<glyph unicode="Y" horiz-adv-x="615" d="M28 705H152L310 381L464 705H587V635H520L353 290V70H435V0H180V70H265V290L93 635H28V705Z"  />
<glyph unicode="Z" horiz-adv-x="563" d="M65 705H516V639L130 70H449V195H521V0H35V72L420 635H136V512H65V705Z"  />
<glyph unicode="[" horiz-adv-x="333" d="M99 733H304V671H175V-105H304V-168H99V733Z"  />
<glyph unicode="\" horiz-adv-x="417" d="M34 747H97L384 -181H320L34 747Z"  />
<glyph unicode="]" horiz-adv-x="333" d="M29 733H234V-168H29V-105H158V671H29V733Z"  />
<glyph unicode="^" horiz-adv-x="660" d="M330 728L549 466L517 439L330 665L142 439L111 466L330 728Z"  />
<glyph unicode="_" horiz-adv-x="500" d="M-10 -75H510V-125H-10V-75Z"  />
<glyph unicode="`" horiz-adv-x="333" d="M227 592H156L43 728H161L227 592Z"  />
<glyph unicode="a" horiz-adv-x="552" d="M388 275L339 269Q277 261 236 252T168 228T131 195T120 151Q120 130 128 112T152 79T187 57T231 49Q267 49 296 64T345 100T377 146T388 188V275ZM541 0H389V95Q357 44 313 17T209 -10Q171 -10 140 2T85 36T49 87T36 152Q36 228 107 269T338 325L388 330V385Q388 431 356 457T267 484Q208 484 179 463T138 389H57Q66 430 79 454T117 499Q172 545 261 545Q302 545 339 535T404 503T448 445T465 359V63H541V0Z"  />
<glyph unicode="b" horiz-adv-x="625" d="M188 227Q188 194 200 164T234 110T283 73T342 59Q376 59 404 74T452 116T482 183T493 271Q493 317 483 355T453 422T406 465T345 480Q316 480 288 465T237 427T202 375T188 317V227ZM38 736H188V425Q195 439 210 459T248 498T300 530T364 544Q409 544 448 523T515 463T560 374T577 263Q577 208 560 159T514 73T445 15T362 -7Q326 -7 299 3T252 30T216 65T188 101V0H35V63H111V673H38V736Z"  />
<glyph unicode="c" horiz-adv-x="552" d="M514 181Q508 159 503 143T491 115T479 92T463 71Q396 -11 288 -11Q233 -11 189 9T113 67T64 158T47 278Q47 335 64 384T111 469T181 525T270 546Q307 546 334 536T381 509T417 474T445 438V539H504V350H444Q437 368 426 390T397 433T350 468T281 482Q210 482 171 425T131 264Q131 216 142 178T175 112T226 71T294 56Q332 56 365 76T417 131Q422 140 426 150T436 181H514Z"  />
<glyph unicode="d" horiz-adv-x="625" d="M442 321Q442 346 430 373T395 424T343 463T277 479Q247 479 222 463T177 418T148 350T137 266Q137 219 147 181T177 115T223 72T283 57Q314 57 342 70T393 106T428 158T442 219V321ZM362 736H519V63H594V0H442V105Q429 88 413 69T375 32T325 4T259 -7Q216 -7 178 14T112 72T67 158T50 265Q50 324 66 375T112 463T181 522T267 544Q305 544 342 525T408 473Q416 465 422 456T442 428V673H362V736Z"  />
<glyph unicode="e" horiz-adv-x="552" d="M428 313Q423 364 411 394T376 447Q340 480 287 480Q238 480 200 450T144 365Q141 355 138 341T133 313H428ZM505 148Q497 120 487 102T462 66Q396 -11 293 -11Q238 -11 193 9T114 66T63 154T45 267Q45 326 63 377T112 465T187 524T280 546Q330 546 373 527T449 471T499 379T517 254H128Q133 194 147 158T190 95Q231 55 291 55Q338 55 368 77T418 148H505Z"  />
<glyph unicode="f" horiz-adv-x="313" d="M98 593Q98 631 100 660T116 708T159 738T244 748Q261 748 272 748T303 745V677L291 678L261 679Q234 680 217 678T191 668T178 649T175 621V539H285V475H175V63H255V0H22V63H98V475H1V539H98V593Z"  />
<glyph unicode="g" horiz-adv-x="594" d="M421 340Q421 362 409 387T375 433T326 469T267 483Q201 483 163 433T125 294Q125 204 164 154T272 103Q302 103 329 116T376 149T409 194T421 243V340ZM421 132Q384 80 344 60T259 40Q211 40 171 59T102 112T57 194T41 299Q41 353 56 398T99 477T165 528T250 547Q287 547 314 537T362 511T396 477T421 443V539H573V475H498V33Q498 -65 439 -118T269 -171Q202 -171 149 -144T68 -69Q63 -59 58 -48T46 -16H133Q157 -65 189 -85T275 -105Q344 -105 382 -72T421 20V132Z"  />
<glyph unicode="h" horiz-adv-x="604" d="M21 736H177V432Q193 456 214 477T259 514T309 539T362 548Q390 548 417 536T463 504Q487 478 498 437T509 328V63H587V0H432V344Q432 477 333 477Q301 477 266 457T206 401Q198 390 193 380T184 354T179 315T177 256V63H251V0H19V63H100V673H21V736Z"  />
<glyph unicode="i" horiz-adv-x="271" d="M80 707H171V616H80V707ZM19 539H176V63H253V0H18V63H99V475H19V539Z"  />
<glyph unicode="j" horiz-adv-x="313" d="M126 706H215V617H126V706ZM217 539V5L218 -23Q218 -65 216 -95T201 -145T158 -174T73 -184Q61 -184 49 -184T23 -182V-119H42Q79 -120 99 -118T128 -103T138 -67T140 0V475H64V539H217Z"  />
<glyph unicode="k" horiz-adv-x="583" d="M24 736H179V301L417 539H513V475H452L324 355L496 63H555V0H446L272 306L179 218V63H257V0H24V63H102V673H24V736Z"  />
<glyph unicode="l" horiz-adv-x="271" d="M24 736H177V63H249V0H23V63H100V673H24V736Z"  />
<glyph unicode="m" horiz-adv-x="865" d="M178 437Q187 451 201 470T235 506T283 536T348 548Q454 548 473 436Q489 463 499 476T524 502Q576 548 639 548Q701 548 735 510T769 402V63H843V0H692V374Q692 431 673 457T615 483Q580 483 554 465T509 423T482 373T473 335V63H550V0H396V386Q396 437 377 460T319 483Q288 483 262 466T217 425T188 375T177 331V63H253V0H22V63H100V475H22V539H178V437Z"  />
<glyph unicode="n" horiz-adv-x="604" d="M250 63V0H21V63H96V475H20V539H173V438Q181 450 195 468T231 505T282 535T350 548Q423 548 464 498T506 357V63H583V0H429V356Q429 414 402 447T327 480Q298 480 270 466T221 428T186 375T173 313V63H250Z"  />
<glyph unicode="o" horiz-adv-x="583" d="M132 268Q132 167 173 111T289 55Q366 55 409 112T452 272Q452 368 408 424T289 480Q216 480 174 424T132 268ZM290 -12Q235 -12 190 8T113 66T63 155T45 270Q45 331 63 382T113 470T191 527T292 547Q346 547 391 526T469 469T520 381T539 270Q539 207 521 156T470 67T391 9T290 -12Z"  />
<glyph unicode="p" horiz-adv-x="604" d="M169 228Q169 195 182 165T216 111T266 73T324 59Q357 59 383 73T429 115T459 179T470 262Q470 311 460 351T430 420T383 464T322 480Q291 480 264 467T215 430T182 377T169 314V228ZM169 438Q179 452 194 470T229 504T277 532T339 544Q385 544 425 523T493 465T538 376T555 265Q555 209 538 160T492 73T425 15T342 -6Q310 -6 284 4T237 29T199 63T169 98V-108H243V-172H11V-108H92V475H13V539H169V438Z"  />
<glyph unicode="q" horiz-adv-x="604" d="M430 310Q430 342 417 372T383 426T333 464T275 479Q206 479 167 421T127 263Q127 216 137 179T167 114T214 73T275 58Q314 58 343 76T391 120T420 173T430 216V310ZM430 108Q419 91 405 72T369 35T319 6T251 -6Q207 -6 169 15T102 74T57 161T41 271Q41 327 57 377T102 464T167 522T248 544Q288 544 319 530T373 497T410 460T430 432V539H584V475H507V-108H582V-172H353V-108H430V108Z"  />
<glyph unicode="r" horiz-adv-x="427" d="M186 415Q196 436 203 450T218 475T233 494T250 511Q293 548 348 548Q365 548 406 542V463Q368 470 349 470Q294 470 262 447T213 394T191 339T186 311V63H278V0H32V63H109V475H29V539H186V415Z"  />
<glyph unicode="s" horiz-adv-x="510" d="M383 539H444V380H384Q371 406 363 419T341 445Q295 488 228 488Q206 488 187 481T154 462T131 434T123 400Q123 364 150 348T248 323Q305 316 346 305T414 274T454 226T467 159Q467 124 453 93T415 38T359 2T290 -12Q253 -12 225 -2T176 23T140 56T112 90V0H49V175H110Q116 161 121 151T132 132T142 117T156 103Q205 56 268 56Q321 56 355 84T389 156Q389 176 383 190T361 214T319 230T255 241L225 245Q138 255 93 292T48 389Q48 424 60 453T95 503T149 535T219 547Q254 547 280 538T325 514T359 483T383 453V539Z"  />
<glyph unicode="t" horiz-adv-x="313" d="M85 674H162V539H292V475H162V123Q162 97 166 83T180 61T210 52T261 50L289 51V-9Q266 -11 241 -11T196 -12Q164 -12 143 -7T109 11T91 44T85 97V475H-7V539H85V674Z"  />
<glyph unicode="u" horiz-adv-x="604" d="M21 539H169V166Q169 114 194 83T263 52Q291 52 318 65T371 102Q388 119 399 136T416 176T425 228T428 299V475H354V539H505V63H578V0H426V105Q414 88 398 68T359 29T305 -1T234 -13Q202 -13 176 -1T131 32T102 84T92 152V475H21V539Z"  />
<glyph unicode="v" horiz-adv-x="583" d="M23 539H226V475H161L292 80L422 475H356V539H561V475H501L336 0H245L83 475H23V539Z"  />
<glyph unicode="w" horiz-adv-x="833" d="M23 539H226V475H160L264 71L377 539H459L575 64L680 475H608V539H811V475H752L623 0H527L419 444L310 0H217L86 475H23V539Z"  />
<glyph unicode="x" horiz-adv-x="531" d="M36 539H143L265 347L386 539H491V475H431L308 281L446 63H506V0H402L265 214L130 0H26V63H87L224 280L99 475H36V539Z"  />
<glyph unicode="y" horiz-adv-x="583" d="M23 539H227V475H160L298 96L422 475H358V539H559V475H500L321 -60Q309 -96 299 -118T277 -152T247 -168T205 -172Q188 -172 175 -171T136 -167L108 -164L112 -99Q129 -101 140 -102T158 -104T171 -105T181 -105Q201 -105 212 -103T232 -91T246 -63T264 -11L83 475H23V539Z"  />
<glyph unicode="z" horiz-adv-x="469" d="M57 539H433V478L128 63H377V163H440V0H28V62L335 475H122V376H57V539Z"  />
<glyph unicode="{" horiz-adv-x="333" d="M16 315Q43 316 64 321T102 344T126 395T135 484V580Q135 617 140 649T165 703T220 739T317 752V697Q278 695 256 691T223 673T208 629T205 548V459Q205 430 200 404T180 354T142 313T82 283Q118 271 141 253T179 212T199 163T205 107V18Q205 -34 208 -63T222 -106T256 -125T317 -131V-186Q256 -186 220 -173T165 -138T141 -84T135 -14V82Q135 138 127 171T102 221T65 244T16 251V315Z"  />
<glyph unicode="|" horiz-adv-x="527" d="M231 750H296V-250H231V750Z"  />
<glyph unicode="}" horiz-adv-x="333" d="M317 251Q290 250 269 245T231 222T207 171T198 82V-14Q198 -52 193 -83T168 -137T113 -173T16 -186V-131Q55 -130 77 -126T110 -107T125 -63T128 18V107Q128 136 133 162T153 212T191 253T251 283Q215 295 192 313T154 354T134 403T128 459V548Q128 600 125 629T111 672T77 691T16 697V752Q77 752 113 739T168 704T192 649T198 580V484Q198 428 206 395T231 345T268 322T317 315V251Z"  />
<glyph unicode="~" horiz-adv-x="667" d="M70 251Q73 294 81 318T109 363Q126 380 147 389T190 399Q198 399 209 398T239 392T290 376T370 344Q411 326 436 318T482 309Q559 309 572 398H597Q592 326 560 288T468 250Q456 250 445 251T418 257T382 270T329 291L288 308Q245 326 223 332T182 339Q146 339 126 318T95 251H70Z"  />
<glyph unicode="&#xA0;" horiz-adv-x="278" />
<glyph unicode="&#xA1;" horiz-adv-x="250" d="M80 566H171V475H80V566ZM97 376H155L166 -172H83L97 376Z"  />
<glyph unicode="&#xA2;" horiz-adv-x="552" d="M514 181Q508 159 503 143T491 115T479 92T463 71Q396 -11 288 -11Q281 -11 275 -11T260 -9L228 -179H180L214 1Q136 24 92 96T47 278Q47 335 64 384T111 469T181 525T270 546Q293 546 316 541L353 739H400L360 524Q389 507 409 483T445 438V539H504V350H444Q439 363 432 379T413 412T387 443T349 467L273 58Q278 56 283 56T294 56Q332 56 365 76T417 131Q422 140 426 150T436 181H514ZM304 480Q299 481 294 481T281 482Q210 482 171 425T131 264Q131 192 156 142T227 71L304 480Z"  />
<glyph unicode="&#xA3;" horiz-adv-x="573" d="M135 381Q133 389 132 393T127 409Q116 439 109 465T101 523Q101 566 116 602T159 664T223 705T306 720Q389 720 447 674T522 549Q525 536 526 521T529 479H445Q447 535 434 568T399 618T354 641T311 646Q256 646 223 612T189 523Q189 511 190 499T195 473T203 440T216 398L221 382H358V317H233Q234 304 235 291T236 264Q236 209 222 163T181 68H440V177H515V0H92V64Q101 76 112 93T133 135T150 190T157 260Q157 272 156 283T153 316H64V381H135Z"  />
<glyph unicode="&#xA4;" horiz-adv-x="667" d="M95 518L138 562L201 499Q233 525 269 534T334 544Q363 544 394 536T466 499L528 562L571 518L509 456Q537 414 544 381T552 323Q552 292 544 261T509 192L571 129L528 86L466 148Q437 124 400 113T332 101Q297 101 265 111T200 145L139 86L95 129L156 189Q132 222 122 256T111 324Q111 368 125 401T158 456L95 518ZM175 323Q175 290 187 261T221 211T271 177T333 164Q366 164 395 176T445 211T479 261T492 323Q492 356 480 385T446 435T397 469T335 482Q302 482 273 470T222 436T188 385T175 323Z"  />
<glyph unicode="&#xA5;" horiz-adv-x="615" d="M263 370H113V438H220L121 637H55V705H179L308 438L437 705H560V637H494L398 438H502V370H352V256H502V187H352V71H436V0H179V71H263V187H113V256H263V370Z"  />
<glyph unicode="&#xA6;" horiz-adv-x="527" d="M231 175H296V-175H231V175ZM231 675H296V325H231V675Z"  />
<glyph unicode="&#xA7;" horiz-adv-x="500" d="M217 423Q164 397 141 369T117 306Q117 265 150 241T251 190L291 174Q348 201 371 228T394 296Q394 315 384 330T356 358T313 383T257 407L217 423ZM137 -18Q155 -71 183 -95T257 -119Q308 -119 341 -88T374 -8Q374 17 362 35T329 68T283 94T228 116Q195 128 163 142T106 176T66 222T50 285Q50 319 69 352T122 411Q132 419 143 426T176 444Q162 452 144 463T110 491T84 531T73 587Q73 620 86 649T124 699T180 733T251 745Q305 745 348 723T413 663Q421 649 425 634T436 589H362Q345 639 321 660T254 682Q231 682 212 676T178 658T155 631T146 598Q146 573 158 555T190 523T235 498T288 477Q319 466 349 453T404 421T442 378T457 319Q457 284 445 258T414 212T374 178T335 154Q347 148 366 136T403 104T435 56T449 -10Q449 -46 434 -77T393 -131T333 -167T258 -181Q192 -181 143 -150T74 -62Q70 -54 68 -45T62 -18H137Z"  />
<glyph unicode="&#xA8;" horiz-adv-x="333" d="M29 629V729H121V629H29ZM212 629V729H303V629H212Z"  />
<glyph unicode="&#xA9;" horiz-adv-x="800" d="M566 270Q559 251 553 238T541 214T528 196T510 180Q487 162 459 152T402 142Q363 142 329 158T269 202T230 269T215 353Q215 398 229 436T268 501T328 544T405 559Q463 559 499 531T562 451L515 437Q495 480 470 499T406 518Q343 518 306 475T268 357Q268 319 277 288T304 234T346 199T401 186Q445 186 471 208T522 286L566 270ZM773 355Q773 278 744 210T664 92T545 12T400 -18Q323 -18 255 11T137 91T57 210T27 355Q27 432 56 500T136 618T255 698T400 728Q477 728 545 699T663 619T743 500T773 355ZM728 355Q728 423 702 482T632 586T528 657T400 683Q332 683 273 657T169 587T99 483T73 355Q73 287 98 228T168 124T272 54T400 28Q468 28 527 53T631 123T702 227T728 355Z"  />
<glyph unicode="&#xAA;" horiz-adv-x="354" d="M251 539L212 535Q175 530 150 524T109 509T86 488T79 460Q79 432 99 413T151 394Q170 394 188 402T220 423T242 453T251 488V539ZM39 613Q61 712 172 712Q229 712 264 681T300 598V402H349V362H252V423Q223 386 198 372T136 357Q88 357 57 386T26 460Q26 494 45 514T95 547T166 564T251 575V604Q251 637 231 655T175 673Q136 673 117 660T90 613H39Z"  />
<glyph unicode="&#xAB;" horiz-adv-x="542" d="M97 270L261 0H191L28 270L193 536H264L97 270ZM347 270L511 0H441L278 270L443 536H514L347 270Z"  />
<glyph unicode="&#xAC;" horiz-adv-x="667" d="M68 472H599V170H535V408H68V472Z"  />
<glyph unicode="&#xAD;" horiz-adv-x="344" d="M62 302H282V236H62V302Z"  />
<glyph unicode="&#xAE;" horiz-adv-x="800" d="M773 355Q773 278 744 210T664 92T545 12T400 -18Q323 -18 255 11T137 91T57 210T27 355Q27 432 56 500T136 618T255 698T400 728Q477 728 545 699T663 619T743 500T773 355ZM728 355Q728 423 702 482T632 586T528 657T400 683Q332 683 273 657T169 587T99 483T73 355Q73 287 98 228T168 124T272 54T400 28Q468 28 527 53T631 123T702 227T728 355ZM249 547H412Q475 547 510 520T545 442Q545 394 519 369T429 332Q453 322 463 316T485 297Q499 282 513 256T547 184L560 155H501Q476 208 459 241T423 293T382 318T321 325H298V155H249V547ZM298 366H363Q432 366 460 382T488 439Q488 478 463 492T371 507H298V366Z"  />
<glyph unicode="&#xAF;" horiz-adv-x="333" d="M14 627V699H319V627H14Z"  />
<glyph unicode="&#xB0;" horiz-adv-x="400" d="M341 587Q341 558 330 533T300 490T256 460T201 449Q172 449 146 459T101 489T71 533T60 587Q60 616 71 642T101 687T145 717T200 728Q229 728 255 717T300 687T330 642T341 587ZM300 588Q300 630 271 659T200 688Q158 688 129 659T100 588Q100 546 129 518T200 489Q242 489 271 517T300 588Z"  />
<glyph unicode="&#xB1;" horiz-adv-x="667" d="M68 437H301V671H365V437H599V373H365V140H301V373H68V437ZM68 42H599V-22H68V42Z"  />
<glyph unicode="&#xB2;" horiz-adv-x="354" d="M93 414H262V462H310V368H35V423L109 486Q147 517 173 540T214 580T237 610T244 635Q244 663 224 680T172 697Q137 697 118 684T87 639H32Q41 694 74 719T172 744Q230 744 265 715T300 638Q300 620 293 604T271 569T231 530T171 479L157 468L147 459L136 451L93 414Z"  />
<glyph unicode="&#xB3;" horiz-adv-x="354" d="M40 736H314V685L199 588Q241 588 264 576T300 546T315 511T318 483Q318 426 278 392T172 358Q109 358 76 385T31 477H86Q95 440 116 425T175 409Q215 409 239 429T263 482Q263 515 242 534T185 554Q177 554 171 553T153 549L125 584L250 690H89V635H40V736Z"  />
<glyph unicode="&#xB4;" horiz-adv-x="333" d="M109 592L174 728H289L181 592H109Z"  />
<glyph unicode="&#xB5;" horiz-adv-x="556" d="M75 518H147V255Q147 220 148 196T153 155T163 124T180 96Q216 47 273 47Q294 47 317 53T360 80T393 140T406 247V518H479V0H407V61Q375 21 344 5T278 -12Q243 -12 211 3T147 61V-204H75V518Z"  />
<glyph unicode="&#xB6;" horiz-adv-x="650" d="M616 716V648H520V-200H458V648H328V-200H264V305Q206 305 165 322T96 367T57 433T44 512Q44 558 60 596T107 660T181 701T278 716H616Z"  />
<glyph unicode="&#xB7;" horiz-adv-x="323" d="M117 396H206V299H117V396Z"  />
<glyph unicode="&#xB8;" horiz-adv-x="333" d="M57 -143Q72 -144 82 -144T103 -145Q182 -145 182 -108Q182 -96 174 -89T153 -79T128 -76T105 -75L131 11H196L180 -41Q263 -53 263 -114Q263 -156 224 -180T120 -205Q103 -205 86 -204T52 -200L57 -143Z"  />
<glyph unicode="&#xB9;" horiz-adv-x="354" d="M159 738H219V414H280V368H104V414H164V682L88 620V680L159 738Z"  />
<glyph unicode="&#xBA;" horiz-adv-x="375" d="M188 670Q139 670 113 635T86 534Q86 469 112 433T188 397Q235 397 263 434T291 534Q291 597 264 633T188 670ZM188 712Q222 712 251 699T302 662T335 606T347 534Q347 495 335 462T302 405T252 368T188 355Q116 355 73 404T30 534Q30 574 41 606T74 662T124 699T188 712Z"  />
<glyph unicode="&#xBB;" horiz-adv-x="542" d="M28 536H99L264 270L101 0H31L195 270L28 536ZM278 536H349L514 270L351 0H281L445 270L278 536Z"  />
<glyph unicode="&#xBC;" horiz-adv-x="792" d="M133 738H193V414H255V368H78V414H138V682L62 620V680L133 738ZM609 335H675L490 123H608V183L661 243V123H745V79H661V11H705V-32H565V11H608V79H427V127L609 335ZM549 742H603L207 -34H154L549 742Z"  />
<glyph unicode="&#xBD;" horiz-adv-x="792" d="M154 738H214V414H275V368H98V414H158V682L83 620V680L154 738ZM690 61H739V-32H463V23L515 66Q566 109 597 136T645 182T667 212T673 236Q673 263 653 280T600 297Q565 297 546 284T515 239H460Q470 294 503 319T602 344Q659 344 693 315T728 238Q728 221 722 205T700 170T658 128T592 73L521 14H690V61ZM557 742H612L215 -34H162L557 742Z"  />
<glyph unicode="&#xBE;" horiz-adv-x="792" d="M44 736H318V685L202 588Q242 588 266 577T302 549T318 514T322 483Q322 426 283 392T177 358Q134 358 102 373T54 416Q48 427 44 440T35 477H89Q99 440 119 425T178 409Q220 409 243 428T267 483Q267 516 246 535T189 554Q181 554 175 553T157 549L129 584L254 690H92V635H44V736ZM638 335H705L519 123H637V183L690 243V123H774V79H690V11H734V-32H594V11H637V79H456V127L638 335ZM566 742H621L224 -34H171L566 742Z"  />
<glyph unicode="&#xBF;" horiz-adv-x="583" d="M269 571H359V480H269V571ZM278 381H352V189Q326 187 307 184T272 174T244 159T219 138Q178 95 178 32Q178 3 188 -22T216 -66T258 -95T309 -106Q356 -106 390 -78T438 -1Q440 8 442 19T446 50H526Q521 -13 507 -50T462 -116Q403 -172 313 -172Q267 -172 229 -157T162 -114T117 -50T101 32Q101 92 133 140T223 212Q234 216 245 219T278 227V381Z"  />
<glyph unicode="&#xC0;" horiz-adv-x="719" d="M355 631L241 269H473L355 631ZM304 705H406L624 70H691V0H560L496 200H218L156 0H28V70H92L304 705ZM420 758H349L236 894H354L420 758Z"  />
<glyph unicode="&#xC1;" horiz-adv-x="719" d="M355 631L241 269H473L355 631ZM304 705H406L624 70H691V0H560L496 200H218L156 0H28V70H92L304 705ZM302 758L367 894H482L374 758H302Z"  />
<glyph unicode="&#xC2;" horiz-adv-x="719" d="M355 631L241 269H473L355 631ZM304 705H406L624 70H691V0H560L496 200H218L156 0H28V70H92L304 705ZM361 841L305 758H205L311 894H404L514 758H414L361 841Z"  />
<glyph unicode="&#xC3;" horiz-adv-x="719" d="M355 631L241 269H473L355 631ZM304 705H406L624 70H691V0H560L496 200H218L156 0H28V70H92L304 705ZM196 770Q196 805 207 826T233 860T266 876T296 881Q326 881 370 859L385 851Q396 846 405 843T424 840Q441 840 448 849T459 883H523Q515 771 429 771Q397 771 355 794L337 804Q324 811 315 813T297 816Q295 816 290 816T278 811T266 797T261 770H196Z"  />
<glyph unicode="&#xC4;" horiz-adv-x="719" d="M355 631L241 269H473L355 631ZM304 705H406L624 70H691V0H560L496 200H218L156 0H28V70H92L304 705ZM222 795V895H314V795H222ZM405 795V895H496V795H405Z"  />
<glyph unicode="&#xC5;" horiz-adv-x="719" d="M355 631L241 269H473L355 631ZM304 705H406L624 70H691V0H560L496 200H218L156 0H28V70H92L304 705ZM272 828Q272 846 279 862T298 889T326 908T362 915Q380 915 395 908T422 889T441 861T448 826Q448 788 423 763T360 737Q342 737 326 744T298 763T279 792T272 828ZM309 828Q309 805 324 789T361 773Q382 773 397 788T413 827Q413 849 398 864T361 880Q340 880 325 865T309 828Z"  />
<glyph unicode="&#xC6;" horiz-adv-x="1000" d="M474 635L346 381H514V635H474ZM424 705H940V502H865V635H602V386H864V317H602V70H881V210H956V0H514V317H315L156 0H34V70H106L424 705Z"  />
<glyph unicode="&#xC7;" horiz-adv-x="677" d="M286 -6Q231 5 187 35T112 110T64 216T47 347Q47 428 68 495T126 612T216 688T332 715Q375 715 410 703T472 673T518 632T550 591V705H630V474H550Q537 509 526 529T501 566Q437 639 344 639Q297 639 260 619T195 562T154 473T139 356Q139 288 154 234T196 142T263 83T351 62Q405 62 451 90T524 166Q531 177 536 190T549 229H639Q622 150 576 94Q532 40 475 12T348 -14L340 -41Q423 -53 423 -114Q423 -156 384 -180T280 -205Q263 -205 246 -204T212 -200L217 -143Q232 -144 242 -144T263 -145Q342 -145 342 -108Q342 -96 334 -89T313 -79T288 -76T265 -75L286 -6Z"  />
<glyph unicode="&#xC8;" horiz-adv-x="604" d="M21 705H537V501H457V635H192V400H454V330H192V70H469V215H549V0H20V70H105V635H21V705ZM363 758H292L179 894H297L363 758Z"  />
<glyph unicode="&#xC9;" horiz-adv-x="604" d="M21 705H537V501H457V635H192V400H454V330H192V70H469V215H549V0H20V70H105V635H21V705ZM245 758L310 894H425L317 758H245Z"  />
<glyph unicode="&#xCA;" horiz-adv-x="604" d="M21 705H537V501H457V635H192V400H454V330H192V70H469V215H549V0H20V70H105V635H21V705ZM304 841L248 758H148L254 894H347L457 758H357L304 841Z"  />
<glyph unicode="&#xCB;" horiz-adv-x="604" d="M21 705H537V501H457V635H192V400H454V330H192V70H469V215H549V0H20V70H105V635H21V705ZM165 795V895H257V795H165ZM348 795V895H439V795H348Z"  />
<glyph unicode="&#xCC;" horiz-adv-x="302" d="M23 705H279V635H195V70H279V0H23V70H107V635H23V705ZM213 758H142L29 894H147L213 758Z"  />
<glyph unicode="&#xCD;" horiz-adv-x="302" d="M23 705H279V635H195V70H279V0H23V70H107V635H23V705ZM95 758L160 894H275L167 758H95Z"  />
<glyph unicode="&#xCE;" horiz-adv-x="302" d="M23 705H279V635H195V70H279V0H23V70H107V635H23V705ZM154 841L98 758H-2L104 894H197L307 758H207L154 841Z"  />
<glyph unicode="&#xCF;" horiz-adv-x="302" d="M23 705H279V635H195V70H279V0H23V70H107V635H23V705ZM15 795V895H107V795H15ZM198 795V895H289V795H198Z"  />
<glyph unicode="&#xD0;" horiz-adv-x="698" d="M194 69H290Q381 69 434 94T516 160T552 250T561 346Q561 412 549 465T506 556T425 614T296 635H194V386H393V319H194V69ZM106 635H22V705H330Q406 705 467 680T570 608T634 494T657 340Q657 264 633 202T566 94T463 25T330 0H23V69H106V319H36V386H106V635Z"  />
<glyph unicode="&#xD1;" horiz-adv-x="781" d="M21 705H239L595 70V635H507V705H759V635H677V0H542L186 634V70H272V0H21V70H103V635H21V705ZM227 770Q227 805 238 826T264 860T297 876T327 881Q357 881 401 859L416 851Q427 846 436 843T455 840Q472 840 479 849T490 883H554Q546 771 460 771Q428 771 386 794L368 804Q355 811 346 813T328 816Q326 816 321 816T309 811T297 797T292 770H227Z"  />
<glyph unicode="&#xD2;" horiz-adv-x="708" d="M141 355Q141 216 199 139T360 61Q406 61 444 81T511 139T554 228T569 342Q569 410 557 458T526 540T483 592T436 622T393 636T362 639H350Q345 639 328 637T288 627T239 601T191 552T155 472T141 355ZM351 712Q423 712 480 685T578 609T640 493T662 345Q662 268 639 203T576 90T479 15T357 -12Q286 -12 229 14T132 90T69 209T47 365Q47 437 69 500T131 610T227 685T351 712ZM415 758H344L231 894H349L415 758Z"  />
<glyph unicode="&#xD3;" horiz-adv-x="708" d="M141 355Q141 216 199 139T360 61Q406 61 444 81T511 139T554 228T569 342Q569 410 557 458T526 540T483 592T436 622T393 636T362 639H350Q345 639 328 637T288 627T239 601T191 552T155 472T141 355ZM351 712Q423 712 480 685T578 609T640 493T662 345Q662 268 639 203T576 90T479 15T357 -12Q286 -12 229 14T132 90T69 209T47 365Q47 437 69 500T131 610T227 685T351 712ZM297 758L362 894H477L369 758H297Z"  />
<glyph unicode="&#xD4;" horiz-adv-x="708" d="M141 355Q141 216 199 139T360 61Q406 61 444 81T511 139T554 228T569 342Q569 410 557 458T526 540T483 592T436 622T393 636T362 639H350Q345 639 328 637T288 627T239 601T191 552T155 472T141 355ZM351 712Q423 712 480 685T578 609T640 493T662 345Q662 268 639 203T576 90T479 15T357 -12Q286 -12 229 14T132 90T69 209T47 365Q47 437 69 500T131 610T227 685T351 712ZM356 841L300 758H200L306 894H399L509 758H409L356 841Z"  />
<glyph unicode="&#xD5;" horiz-adv-x="708" d="M141 355Q141 216 199 139T360 61Q406 61 444 81T511 139T554 228T569 342Q569 410 557 458T526 540T483 592T436 622T393 636T362 639H350Q345 639 328 637T288 627T239 601T191 552T155 472T141 355ZM351 712Q423 712 480 685T578 609T640 493T662 345Q662 268 639 203T576 90T479 15T357 -12Q286 -12 229 14T132 90T69 209T47 365Q47 437 69 500T131 610T227 685T351 712ZM191 770Q191 805 202 826T228 860T261 876T291 881Q321 881 365 859L380 851Q391 846 400 843T419 840Q436 840 443 849T454 883H518Q510 771 424 771Q392 771 350 794L332 804Q319 811 310 813T292 816Q290 816 285 816T273 811T261 797T256 770H191Z"  />
<glyph unicode="&#xD6;" horiz-adv-x="708" d="M141 355Q141 216 199 139T360 61Q406 61 444 81T511 139T554 228T569 342Q569 410 557 458T526 540T483 592T436 622T393 636T362 639H350Q345 639 328 637T288 627T239 601T191 552T155 472T141 355ZM351 712Q423 712 480 685T578 609T640 493T662 345Q662 268 639 203T576 90T479 15T357 -12Q286 -12 229 14T132 90T69 209T47 365Q47 437 69 500T131 610T227 685T351 712ZM217 795V895H309V795H217ZM400 795V895H491V795H400Z"  />
<glyph unicode="&#xD7;" horiz-adv-x="668" d="M90 523L135 568L334 368L534 568L579 522L380 323L577 125L532 80L334 278L136 80L91 125L289 323L90 523Z"  />
<glyph unicode="&#xD8;" horiz-adv-x="708" d="M596 584Q628 537 645 477T662 345Q662 268 639 203T576 90T479 15T357 -12Q293 -12 240 9T149 72L75 -13L33 22L114 114Q82 162 65 225T47 365Q47 437 69 500T131 610T227 685T351 712Q416 712 469 690T561 627L635 712L676 677L596 584ZM508 566Q489 590 468 604T427 626T389 636T362 639H350Q345 639 328 637T288 627T239 601T191 552T155 472T141 355Q141 252 174 183L508 566ZM203 134Q261 61 360 61Q406 61 444 81T511 139T554 228T569 342Q569 400 560 443T537 517L203 134Z"  />
<glyph unicode="&#xD9;" horiz-adv-x="740" d="M25 705H280V635H194V247Q194 205 206 172T240 114T295 77T366 64Q455 64 501 111T547 252V635H461V705H716V635H633V260Q633 125 568 56T372 -13Q244 -13 176 54T107 246V635H25V705ZM431 758H360L247 894H365L431 758Z"  />
<glyph unicode="&#xDA;" horiz-adv-x="740" d="M25 705H280V635H194V247Q194 205 206 172T240 114T295 77T366 64Q455 64 501 111T547 252V635H461V705H716V635H633V260Q633 125 568 56T372 -13Q244 -13 176 54T107 246V635H25V705ZM313 758L378 894H493L385 758H313Z"  />
<glyph unicode="&#xDB;" horiz-adv-x="740" d="M25 705H280V635H194V247Q194 205 206 172T240 114T295 77T366 64Q455 64 501 111T547 252V635H461V705H716V635H633V260Q633 125 568 56T372 -13Q244 -13 176 54T107 246V635H25V705ZM372 841L316 758H216L322 894H415L525 758H425L372 841Z"  />
<glyph unicode="&#xDC;" horiz-adv-x="740" d="M25 705H280V635H194V247Q194 205 206 172T240 114T295 77T366 64Q455 64 501 111T547 252V635H461V705H716V635H633V260Q633 125 568 56T372 -13Q244 -13 176 54T107 246V635H25V705ZM233 795V895H325V795H233ZM416 795V895H507V795H416Z"  />
<glyph unicode="&#xDD;" horiz-adv-x="615" d="M28 705H152L310 381L464 705H587V635H520L353 290V70H435V0H180V70H265V290L93 635H28V705ZM250 758L315 894H430L322 758H250Z"  />
<glyph unicode="&#xDE;" horiz-adv-x="594" d="M196 494V212H299Q375 212 419 250T463 354Q463 422 418 458T286 494H196ZM285 705V635H196V563H319Q372 563 415 548T489 506T537 441T554 355Q554 255 486 199T298 142H196V68H303V0H23V68H108V635H25V705H285Z"  />
<glyph unicode="&#xDF;" horiz-adv-x="594" d="M89 513Q89 621 143 678T301 736Q346 736 382 724T445 690T486 638T501 570Q501 532 490 507T462 466T426 441T392 426Q423 416 444 404T482 377Q549 316 549 225Q549 174 532 130T485 55T414 5T325 -13Q314 -13 298 -12T259 -6V61Q275 59 286 58T306 56Q342 56 373 68T426 103T460 155T473 222Q473 279 440 319T347 373Q335 375 321 376T281 380V442Q326 444 351 453T396 483Q428 515 428 564Q428 587 419 606T392 640T352 663T302 672Q236 672 200 632T164 515V0H14V70H89V513Z"  />
<glyph unicode="&#xE0;" horiz-adv-x="552" d="M388 275L339 269Q277 261 236 252T168 228T131 195T120 151Q120 130 128 112T152 79T187 57T231 49Q267 49 296 64T345 100T377 146T388 188V275ZM541 0H389V95Q357 44 313 17T209 -10Q171 -10 140 2T85 36T49 87T36 152Q36 228 107 269T338 325L388 330V385Q388 431 356 457T267 484Q208 484 179 463T138 389H57Q66 430 79 454T117 499Q172 545 261 545Q302 545 339 535T404 503T448 445T465 359V63H541V0ZM337 592H266L153 728H271L337 592Z"  />
<glyph unicode="&#xE1;" horiz-adv-x="552" d="M388 275L339 269Q277 261 236 252T168 228T131 195T120 151Q120 130 128 112T152 79T187 57T231 49Q267 49 296 64T345 100T377 146T388 188V275ZM541 0H389V95Q357 44 313 17T209 -10Q171 -10 140 2T85 36T49 87T36 152Q36 228 107 269T338 325L388 330V385Q388 431 356 457T267 484Q208 484 179 463T138 389H57Q66 430 79 454T117 499Q172 545 261 545Q302 545 339 535T404 503T448 445T465 359V63H541V0ZM219 592L284 728H399L291 592H219Z"  />
<glyph unicode="&#xE2;" horiz-adv-x="552" d="M388 275L339 269Q277 261 236 252T168 228T131 195T120 151Q120 130 128 112T152 79T187 57T231 49Q267 49 296 64T345 100T377 146T388 188V275ZM541 0H389V95Q357 44 313 17T209 -10Q171 -10 140 2T85 36T49 87T36 152Q36 228 107 269T338 325L388 330V385Q388 431 356 457T267 484Q208 484 179 463T138 389H57Q66 430 79 454T117 499Q172 545 261 545Q302 545 339 535T404 503T448 445T465 359V63H541V0ZM278 675L222 592H122L228 728H321L431 592H331L278 675Z"  />
<glyph unicode="&#xE3;" horiz-adv-x="552" d="M388 275L339 269Q277 261 236 252T168 228T131 195T120 151Q120 130 128 112T152 79T187 57T231 49Q267 49 296 64T345 100T377 146T388 188V275ZM541 0H389V95Q357 44 313 17T209 -10Q171 -10 140 2T85 36T49 87T36 152Q36 228 107 269T338 325L388 330V385Q388 431 356 457T267 484Q208 484 179 463T138 389H57Q66 430 79 454T117 499Q172 545 261 545Q302 545 339 535T404 503T448 445T465 359V63H541V0ZM113 604Q113 639 124 660T150 694T183 710T213 715Q243 715 287 693L302 685Q313 680 322 677T341 674Q358 674 365 683T376 717H440Q432 605 346 605Q314 605 272 628L254 638Q241 645 232 647T214 650Q212 650 207 650T195 645T183 631T178 604H113Z"  />
<glyph unicode="&#xE4;" horiz-adv-x="552" d="M388 275L339 269Q277 261 236 252T168 228T131 195T120 151Q120 130 128 112T152 79T187 57T231 49Q267 49 296 64T345 100T377 146T388 188V275ZM541 0H389V95Q357 44 313 17T209 -10Q171 -10 140 2T85 36T49 87T36 152Q36 228 107 269T338 325L388 330V385Q388 431 356 457T267 484Q208 484 179 463T138 389H57Q66 430 79 454T117 499Q172 545 261 545Q302 545 339 535T404 503T448 445T465 359V63H541V0ZM139 629V729H231V629H139ZM322 629V729H413V629H322Z"  />
<glyph unicode="&#xE5;" horiz-adv-x="552" d="M388 275L339 269Q277 261 236 252T168 228T131 195T120 151Q120 130 128 112T152 79T187 57T231 49Q267 49 296 64T345 100T377 146T388 188V275ZM541 0H389V95Q357 44 313 17T209 -10Q171 -10 140 2T85 36T49 87T36 152Q36 228 107 269T338 325L388 330V385Q388 431 356 457T267 484Q208 484 179 463T138 389H57Q66 430 79 454T117 499Q172 545 261 545Q302 545 339 535T404 503T448 445T465 359V63H541V0ZM189 662Q189 680 196 696T215 723T243 742T279 749Q297 749 312 742T339 723T358 695T365 660Q365 622 340 597T277 571Q259 571 243 578T215 597T196 626T189 662ZM226 662Q226 639 241 623T278 607Q299 607 314 622T330 661Q330 683 315 698T278 714Q257 714 242 699T226 662Z"  />
<glyph unicode="&#xE6;" horiz-adv-x="885" d="M769 314Q765 364 754 394T718 447Q685 480 632 480Q585 480 554 462T505 418T478 364T469 314H769ZM357 272Q303 266 259 258T184 235T135 201T118 150Q118 105 150 77T232 48Q254 48 276 55T317 75T352 105T376 143Q381 155 383 168T387 196T389 230T389 276L357 272ZM55 387Q66 429 79 453T117 498Q175 544 259 544Q286 544 313 539T365 520T410 486T445 431Q458 453 474 474T513 511T562 536T625 546Q678 546 722 522T796 458T842 365T855 257H464Q469 184 492 143T543 82T596 58T631 53Q654 53 672 58T705 74T735 103T763 148H845Q837 122 819 94T775 43T713 5T635 -10Q580 -10 543 4T480 39T440 86T412 133Q403 112 388 87T348 40T288 3T203 -12Q167 -12 136 0T83 33T47 84T34 148Q34 198 62 230T138 281T251 311T389 330Q389 358 388 377T383 410T375 433T362 451Q326 485 268 485Q211 485 182 463T136 387H55Z"  />
<glyph unicode="&#xE7;" horiz-adv-x="552" d="M218 0Q138 21 93 93T47 278Q47 335 64 384T111 469T181 525T270 546Q307 546 334 536T381 509T417 474T445 438V539H504V350H444Q437 368 426 390T397 433T350 468T281 482Q210 482 171 425T131 264Q131 216 142 178T175 112T226 71T294 56Q332 56 365 76T417 131Q422 140 426 150T436 181H514Q508 159 503 143T491 115T479 92T463 71Q430 30 384 9T280 -10L270 -41Q353 -53 353 -114Q353 -156 314 -180T210 -205Q193 -205 176 -204T142 -200L147 -143Q162 -144 172 -144T193 -145Q272 -145 272 -108Q272 -96 264 -89T243 -79T218 -76T195 -75L218 0Z"  />
<glyph unicode="&#xE8;" horiz-adv-x="552" d="M428 313Q423 364 411 394T376 447Q340 480 287 480Q238 480 200 450T144 365Q141 355 138 341T133 313H428ZM505 148Q497 120 487 102T462 66Q396 -11 293 -11Q238 -11 193 9T114 66T63 154T45 267Q45 326 63 377T112 465T187 524T280 546Q330 546 373 527T449 471T499 379T517 254H128Q133 194 147 158T190 95Q231 55 291 55Q338 55 368 77T418 148H505ZM337 592H266L153 728H271L337 592Z"  />
<glyph unicode="&#xE9;" horiz-adv-x="552" d="M428 313Q423 364 411 394T376 447Q340 480 287 480Q238 480 200 450T144 365Q141 355 138 341T133 313H428ZM505 148Q497 120 487 102T462 66Q396 -11 293 -11Q238 -11 193 9T114 66T63 154T45 267Q45 326 63 377T112 465T187 524T280 546Q330 546 373 527T449 471T499 379T517 254H128Q133 194 147 158T190 95Q231 55 291 55Q338 55 368 77T418 148H505ZM219 592L284 728H399L291 592H219Z"  />
<glyph unicode="&#xEA;" horiz-adv-x="552" d="M428 313Q423 364 411 394T376 447Q340 480 287 480Q238 480 200 450T144 365Q141 355 138 341T133 313H428ZM505 148Q497 120 487 102T462 66Q396 -11 293 -11Q238 -11 193 9T114 66T63 154T45 267Q45 326 63 377T112 465T187 524T280 546Q330 546 373 527T449 471T499 379T517 254H128Q133 194 147 158T190 95Q231 55 291 55Q338 55 368 77T418 148H505ZM278 675L222 592H122L228 728H321L431 592H331L278 675Z"  />
<glyph unicode="&#xEB;" horiz-adv-x="552" d="M428 313Q423 364 411 394T376 447Q340 480 287 480Q238 480 200 450T144 365Q141 355 138 341T133 313H428ZM505 148Q497 120 487 102T462 66Q396 -11 293 -11Q238 -11 193 9T114 66T63 154T45 267Q45 326 63 377T112 465T187 524T280 546Q330 546 373 527T449 471T499 379T517 254H128Q133 194 147 158T190 95Q231 55 291 55Q338 55 368 77T418 148H505ZM139 629V729H231V629H139ZM322 629V729H413V629H322Z"  />
<glyph unicode="&#xEC;" horiz-adv-x="271" d="M19 539H176V63H253V0H18V63H99V475H19V539ZM177 592H106L-7 728H111L177 592Z"  />
<glyph unicode="&#xED;" horiz-adv-x="271" d="M19 539H176V63H253V0H18V63H99V475H19V539ZM79 592L144 728H259L151 592H79Z"  />
<glyph unicode="&#xEE;" horiz-adv-x="271" d="M19 539H176V63H253V0H18V63H99V475H19V539ZM108 675L52 592H-48L58 728H151L261 592H161L108 675Z"  />
<glyph unicode="&#xEF;" horiz-adv-x="271" d="M19 539H176V63H253V0H18V63H99V475H19V539ZM-31 629V729H61V629H-31ZM152 629V729H243V629H152Z"  />
<glyph unicode="&#xF0;" horiz-adv-x="583" d="M286 478Q213 478 170 420T127 263Q127 163 170 107T289 51Q363 51 406 109T450 265Q450 310 438 349T403 416T350 461T286 478ZM433 689L356 651Q444 585 489 486T534 270Q534 207 516 156T466 67T388 9T287 -12Q234 -12 190 8T113 64T63 149T45 259Q45 319 61 370T107 458T177 516T267 537Q301 537 332 525T390 487L394 488Q382 525 352 558T287 618L166 560L147 606L240 651Q224 661 210 669T181 685L208 734Q225 727 249 716T308 684L412 735L433 689Z"  />
<glyph unicode="&#xF1;" horiz-adv-x="604" d="M250 63V0H21V63H96V475H20V539H173V438Q181 450 195 468T231 505T282 535T350 548Q423 548 464 498T506 357V63H583V0H429V356Q429 414 402 447T327 480Q298 480 270 466T221 428T186 375T173 313V63H250ZM139 604Q139 639 150 660T176 694T209 710T239 715Q269 715 313 693L328 685Q339 680 348 677T367 674Q384 674 391 683T402 717H466Q458 605 372 605Q340 605 298 628L280 638Q267 645 258 647T240 650Q238 650 233 650T221 645T209 631T204 604H139Z"  />
<glyph unicode="&#xF2;" horiz-adv-x="583" d="M132 268Q132 167 173 111T289 55Q366 55 409 112T452 272Q452 368 408 424T289 480Q216 480 174 424T132 268ZM290 -12Q235 -12 190 8T113 66T63 155T45 270Q45 331 63 382T113 470T191 527T292 547Q346 547 391 526T469 469T520 381T539 270Q539 207 521 156T470 67T391 9T290 -12ZM352 592H281L168 728H286L352 592Z"  />
<glyph unicode="&#xF3;" horiz-adv-x="583" d="M132 268Q132 167 173 111T289 55Q366 55 409 112T452 272Q452 368 408 424T289 480Q216 480 174 424T132 268ZM290 -12Q235 -12 190 8T113 66T63 155T45 270Q45 331 63 382T113 470T191 527T292 547Q346 547 391 526T469 469T520 381T539 270Q539 207 521 156T470 67T391 9T290 -12ZM234 592L299 728H414L306 592H234Z"  />
<glyph unicode="&#xF4;" horiz-adv-x="583" d="M132 268Q132 167 173 111T289 55Q366 55 409 112T452 272Q452 368 408 424T289 480Q216 480 174 424T132 268ZM290 -12Q235 -12 190 8T113 66T63 155T45 270Q45 331 63 382T113 470T191 527T292 547Q346 547 391 526T469 469T520 381T539 270Q539 207 521 156T470 67T391 9T290 -12ZM293 675L237 592H137L243 728H336L446 592H346L293 675Z"  />
<glyph unicode="&#xF5;" horiz-adv-x="583" d="M132 268Q132 167 173 111T289 55Q366 55 409 112T452 272Q452 368 408 424T289 480Q216 480 174 424T132 268ZM290 -12Q235 -12 190 8T113 66T63 155T45 270Q45 331 63 382T113 470T191 527T292 547Q346 547 391 526T469 469T520 381T539 270Q539 207 521 156T470 67T391 9T290 -12ZM128 604Q128 639 139 660T165 694T198 710T228 715Q258 715 302 693L317 685Q328 680 337 677T356 674Q373 674 380 683T391 717H455Q447 605 361 605Q329 605 287 628L269 638Q256 645 247 647T229 650Q227 650 222 650T210 645T198 631T193 604H128Z"  />
<glyph unicode="&#xF6;" horiz-adv-x="583" d="M132 268Q132 167 173 111T289 55Q366 55 409 112T452 272Q452 368 408 424T289 480Q216 480 174 424T132 268ZM290 -12Q235 -12 190 8T113 66T63 155T45 270Q45 331 63 382T113 470T191 527T292 547Q346 547 391 526T469 469T520 381T539 270Q539 207 521 156T470 67T391 9T290 -12ZM154 629V729H246V629H154ZM337 629V729H428V629H337Z"  />
<glyph unicode="&#xF7;" horiz-adv-x="668" d="M291 529Q292 546 304 557T333 568Q350 568 361 556T373 527Q373 510 362 498T333 485Q317 485 304 497T291 529ZM291 123Q292 141 304 153T333 165Q350 165 362 153T374 124Q374 107 362 95T333 82Q317 82 304 93T291 123ZM68 357H600V293H68V357Z"  />
<glyph unicode="&#xF8;" horiz-adv-x="583" d="M100 84Q46 158 46 270Q46 331 64 382T114 470T192 527T293 547Q339 547 379 532T451 487L503 547L538 516L483 453Q510 418 525 371T540 270Q540 207 522 156T471 67T392 9T291 -12Q243 -12 203 3T131 48L79 -12L43 19L100 84ZM181 104Q221 55 290 55Q367 55 410 112T453 272Q453 342 428 389L181 104ZM402 430Q360 480 290 480Q217 480 175 424T133 268Q133 196 156 147L402 430Z"  />
<glyph unicode="&#xF9;" horiz-adv-x="604" d="M21 539H169V166Q169 114 194 83T263 52Q291 52 318 65T371 102Q388 119 399 136T416 176T425 228T428 299V475H354V539H505V63H578V0H426V105Q414 88 398 68T359 29T305 -1T234 -13Q202 -13 176 -1T131 32T102 84T92 152V475H21V539ZM363 592H292L179 728H297L363 592Z"  />
<glyph unicode="&#xFA;" horiz-adv-x="604" d="M21 539H169V166Q169 114 194 83T263 52Q291 52 318 65T371 102Q388 119 399 136T416 176T425 228T428 299V475H354V539H505V63H578V0H426V105Q414 88 398 68T359 29T305 -1T234 -13Q202 -13 176 -1T131 32T102 84T92 152V475H21V539ZM245 592L310 728H425L317 592H245Z"  />
<glyph unicode="&#xFB;" horiz-adv-x="604" d="M21 539H169V166Q169 114 194 83T263 52Q291 52 318 65T371 102Q388 119 399 136T416 176T425 228T428 299V475H354V539H505V63H578V0H426V105Q414 88 398 68T359 29T305 -1T234 -13Q202 -13 176 -1T131 32T102 84T92 152V475H21V539ZM304 675L248 592H148L254 728H347L457 592H357L304 675Z"  />
<glyph unicode="&#xFC;" horiz-adv-x="604" d="M21 539H169V166Q169 114 194 83T263 52Q291 52 318 65T371 102Q388 119 399 136T416 176T425 228T428 299V475H354V539H505V63H578V0H426V105Q414 88 398 68T359 29T305 -1T234 -13Q202 -13 176 -1T131 32T102 84T92 152V475H21V539ZM145 629V729H237V629H145ZM328 629V729H419V629H328Z"  />
<glyph unicode="&#xFD;" horiz-adv-x="583" d="M23 539H227V475H160L298 96L422 475H358V539H559V475H500L321 -60Q309 -96 299 -118T277 -152T247 -168T205 -172Q188 -172 175 -171T136 -167L108 -164L112 -99Q129 -101 140 -102T158 -104T171 -105T181 -105Q201 -105 212 -103T232 -91T246 -63T264 -11L83 475H23V539ZM234 592L299 728H414L306 592H234Z"  />
<glyph unicode="&#xFE;" horiz-adv-x="604" d="M169 217Q169 190 182 162T216 112T266 75T325 60Q357 60 384 74T430 115T460 178T471 258Q471 309 461 350T431 420T384 464T322 480Q291 480 263 467T214 430T181 375T169 310V217ZM169 438Q180 453 195 471T230 505T278 533T341 544Q387 544 426 523T494 465T539 377T555 266Q555 210 538 161T493 75T425 17T343 -5Q311 -5 285 5T238 32T199 66T169 102V-106H243V-170H11V-106H90V674H16V737H169V438Z"  />
<glyph unicode="&#xFF;" horiz-adv-x="583" d="M23 539H227V475H160L298 96L422 475H358V539H559V475H500L321 -60Q309 -96 299 -118T277 -152T247 -168T205 -172Q188 -172 175 -171T136 -167L108 -164L112 -99Q129 -101 140 -102T158 -104T171 -105T181 -105Q201 -105 212 -103T232 -91T246 -63T264 -11L83 475H23V539ZM154 629V729H246V629H154ZM337 629V729H428V629H337Z"  />
<glyph unicode="&#x131;" horiz-adv-x="271" d="M19 539H176V63H253V0H18V63H99V475H19V539Z"  />
<glyph unicode="&#x152;" horiz-adv-x="1021" d="M525 635H471Q391 635 345 628T267 605Q206 573 174 509T142 351Q142 209 213 136Q233 115 255 102T307 82T375 72T464 69L525 70V635ZM958 705V503H881V635H613V397H873V329H613V70H893V213H970V0L378 -1Q306 -1 246 25T142 97T74 206T49 346Q49 446 87 526T194 651Q236 679 287 692T407 705H958Z"  />
<glyph unicode="&#x153;" horiz-adv-x="948" d="M832 316Q831 348 822 377T795 430T751 466T691 480Q663 480 637 470T591 438T559 387T544 316H832ZM293 483Q256 483 226 468T175 424T142 356T130 268Q130 168 175 110T300 52Q335 52 364 67T413 111T445 178T457 264Q457 365 413 424T293 483ZM905 147Q891 111 880 93T852 57Q788 -10 689 -10Q648 -10 610 3T541 42Q530 51 521 62T494 95Q483 80 468 61T430 26T374 -2T294 -13Q239 -13 194 7T115 65T64 155T46 269Q46 308 58 356T98 446T174 516T293 545Q344 545 389 527T466 474Q473 467 479 459T496 435Q533 497 583 521T683 546Q764 546 824 496T906 357Q911 337 914 316T919 258H542Q544 197 556 161T595 96Q638 53 696 53Q741 53 770 75T823 147H905Z"  />
<glyph unicode="&#x160;" horiz-adv-x="604" d="M122 214Q128 197 133 185T143 162T155 144T170 127Q232 59 317 59Q351 59 380 69T430 98T463 141T475 196Q475 231 457 260T406 303Q392 309 366 314T307 322Q278 325 260 326T229 330T206 335T183 342Q159 350 141 362T95 401Q75 421 64 452T52 520Q52 562 68 598T112 660T178 701T263 716Q328 716 374 687T461 606V705H533V512H462Q447 543 437 558T412 588Q355 642 277 642Q245 642 219 634T174 609T145 572T134 524Q134 496 150 471T191 434Q200 430 209 427T231 422T258 417T296 413Q341 409 375 403T435 386T481 361T517 326Q538 300 549 269T560 202Q560 155 543 116T496 47T426 2T338 -15Q288 -15 241 5T159 62Q151 70 143 80T121 109V0H46V214H122ZM311 812L365 894H465L355 758H261L156 894H256L311 812Z"  />
<glyph unicode="&#x161;" horiz-adv-x="510" d="M383 539H444V380H384Q371 406 363 419T341 445Q295 488 228 488Q206 488 187 481T154 462T131 434T123 400Q123 364 150 348T248 323Q305 316 346 305T414 274T454 226T467 159Q467 124 453 93T415 38T359 2T290 -12Q253 -12 225 -2T176 23T140 56T112 90V0H49V175H110Q116 161 121 151T132 132T142 117T156 103Q205 56 268 56Q321 56 355 84T389 156Q389 176 383 190T361 214T319 230T255 241L225 245Q138 255 93 292T48 389Q48 424 60 453T95 503T149 535T219 547Q254 547 280 538T325 514T359 483T383 453V539ZM264 646L318 728H418L308 592H214L109 728H209L264 646Z"  />
<glyph unicode="&#x178;" horiz-adv-x="615" d="M28 705H152L310 381L464 705H587V635H520L353 290V70H435V0H180V70H265V290L93 635H28V705ZM170 795V895H262V795H170ZM353 795V895H444V795H353Z"  />
<glyph unicode="&#x17D;" horiz-adv-x="563" d="M65 705H516V639L130 70H449V195H521V0H35V72L420 635H136V512H65V705ZM290 812L344 894H444L334 758H240L135 894H235L290 812Z"  />
<glyph unicode="&#x17E;" horiz-adv-x="469" d="M57 539H433V478L128 63H377V163H440V0H28V62L335 475H122V376H57V539ZM243 646L297 728H397L287 592H193L88 728H188L243 646Z"  />
<glyph unicode="&#x192;" horiz-adv-x="556" d="M354 518H463L452 474H345L224 -83Q219 -104 212 -126T191 -167T153 -198T91 -210Q69 -210 51 -207T2 -195L13 -146Q37 -152 52 -154T83 -157Q146 -157 157 -108L283 474H201L210 518H292L305 570Q305 572 307 582T311 595Q315 613 321 636T342 680T381 714T444 728Q461 728 476 726T517 717L534 712L524 664Q483 674 450 674Q433 674 422 671T401 659T386 635T373 595L366 572L354 518Z"  />
<glyph unicode="&#x2C6;" horiz-adv-x="333" d="M168 675L112 592H12L118 728H211L321 592H221L168 675Z"  />
<glyph unicode="&#x2C7;" horiz-adv-x="333" d="M175 646L229 728H329L219 592H125L20 728H120L175 646Z"  />
<glyph unicode="&#x2DA;" horiz-adv-x="333" d="M79 662Q79 680 86 696T105 723T133 742T169 749Q187 749 202 742T229 723T248 695T255 660Q255 622 230 597T167 571Q149 571 133 578T105 597T86 626T79 662ZM116 662Q116 639 131 623T168 607Q189 607 204 622T220 661Q220 683 205 698T168 714Q147 714 132 699T116 662Z"  />
<glyph unicode="&#x2DC;" horiz-adv-x="333" d="M3 604Q3 639 14 660T40 694T73 710T103 715Q133 715 177 693L192 685Q203 680 212 677T231 674Q248 674 255 683T266 717H330Q322 605 236 605Q204 605 162 628L144 638Q131 645 122 647T104 650Q102 650 97 650T85 645T73 631T68 604H3Z"  />
<glyph unicode="&#x2013;" horiz-adv-x="500" d="M-8 285H508V222H-8V285Z"  />
<glyph unicode="&#x2014;" horiz-adv-x="1000" d="M-8 285H1009V222H-8V285Z"  />
<glyph unicode="&#x2018;" horiz-adv-x="250" d="M78 637Q78 689 99 713T170 744V711Q157 709 150 705T138 694T131 673T129 640H170V549H78V637Z"  />
<glyph unicode="&#x2019;" horiz-adv-x="250" d="M80 739H172V654Q172 599 152 575T81 545V580Q106 584 114 597T125 647H80V739Z"  />
<glyph unicode="&#x201A;" horiz-adv-x="250" d="M79 89H169V-5Q169 -54 149 -76T78 -105V-66Q91 -65 99 -62T111 -51T118 -31T121 0H79V89Z"  />
<glyph unicode="&#x201C;" horiz-adv-x="313" d="M186 653Q186 732 275 744V712Q263 709 256 705T244 692T238 671T236 638H276V550H186V653ZM39 632Q39 687 60 712T130 743V709Q105 704 97 691T86 641H130V550H39V632Z"  />
<glyph unicode="&#x201D;" horiz-adv-x="313" d="M183 739H274V652Q274 600 254 577T184 547V580Q197 582 205 586T219 597T226 617T229 648H183V739ZM37 739H128V638Q128 557 39 545V576Q52 580 59 584T71 595T77 615T79 648H37V739Z"  />
<glyph unicode="&#x201E;" horiz-adv-x="313" d="M186 88H273V-9Q273 -53 252 -75T186 -102V-69Q198 -68 206 -64T218 -53T225 -33T228 0H186V88ZM41 88H129V-7Q129 -53 109 -75T42 -103V-70Q54 -67 62 -63T75 -51T82 -31T85 0H41V88Z"  />
<glyph unicode="&#x2020;" horiz-adv-x="521" d="M223 744H302V510L472 518V441L302 448L290 -182H233L221 448L49 441V518L223 510V744Z"  />
<glyph unicode="&#x2021;" horiz-adv-x="521" d="M219 742H298V537L470 545V468L296 475L293 331Q293 314 293 301T292 275T292 247T294 208L296 82L473 90V13L298 20V-185H220V20L49 13V90L221 82L223 208Q224 231 224 246T225 275T225 301T224 331L221 475L49 468V545L219 537V742Z"  />
<glyph unicode="&#x2022;" horiz-adv-x="500" d="M372 349Q372 324 363 302T337 263T298 237T250 227Q225 227 203 236T164 263T138 302T128 351Q128 376 137 398T163 436T202 462T250 472Q275 472 297 463T336 436T362 397T372 349Z"  />
<glyph unicode="&#x2026;" horiz-adv-x="969" d="M117 95H207V0H117V95ZM439 95H529V0H439V95ZM761 95H851V0H761V95Z"  />
<glyph unicode="&#x2030;" horiz-adv-x="1167" d="M978 301Q887 301 887 158Q887 14 978 14Q1070 14 1070 158Q1070 227 1047 264T978 301ZM978 350Q1047 348 1087 296T1127 157Q1127 66 1088 16T978 -35Q908 -35 868 16T828 157Q828 211 841 248T876 309T925 341T978 350ZM560 737H612L222 -35H170L560 737ZM594 348Q663 346 703 295T743 156Q743 65 704 14T594 -37Q525 -37 485 14T444 156Q444 210 457 247T493 307T541 339T594 348ZM593 299Q501 299 501 156Q501 12 593 12Q639 12 662 48T686 156Q686 225 662 262T593 299ZM191 740Q262 740 301 689T341 545Q341 457 302 406T193 354Q123 354 82 404T40 539Q40 740 191 740ZM191 691Q97 691 97 548Q97 477 120 440T188 403Q284 403 284 548Q284 618 261 654T191 691Z"  />
<glyph unicode="&#x2039;" horiz-adv-x="292" d="M97 270L261 0H191L28 270L193 536H264L97 270Z"  />
<glyph unicode="&#x203A;" horiz-adv-x="292" d="M28 536H99L264 270L101 0H31L195 270L28 536Z"  />
<glyph unicode="&#x20AC;" horiz-adv-x="573" d="M392 255H160Q174 165 213 115T314 64Q349 64 372 72T411 93T434 126T447 166H537Q523 81 467 34T311 -13Q265 -13 225 5T154 59T100 143T68 255H0L15 324H62Q62 331 62 337T61 351Q61 359 61 367T62 384H0L15 452H68Q77 513 96 563T144 649T212 704T297 724Q326 724 349 716T390 695T422 663T450 625V712H527V501H456Q448 530 433 556T399 603T356 635T306 647Q238 647 203 595T157 452H445L430 384H152V360Q152 351 152 342T153 324H407L392 255Z"  />
<glyph unicode="&#x2122;" horiz-adv-x="940" d="M95 716H405V673H274V317H225V673H95V716ZM451 716H526L626 397L730 716H805V317H761V673L642 317H608L496 673V317H451V716Z"  />

</font>
</defs>
</svg>
